<?xml version="1.0" encoding="utf-8"?>
<!-- Generator: Adobe Illustrator 22.1.0, SVG Export Plug-In . SVG Version: 6.00 Build 0)  -->
<svg version="1.0" id="Camada_1" xmlns="http://www.w3.org/2000/svg" xmlns:xlink="http://www.w3.org/1999/xlink" x="0px" y="0px"
	 viewBox="0 0 283.5 98.5" style="enable-background:new 0 0 283.5 98.5;" xml:space="preserve">
<style type="text/css">
	.st0{fill:#FFFFFF;}
</style>
<g>
	<defs>
		<path id="SVGID_1_" d="M57.1,39.2v11.6c0,0.8-0.7,1.5-1.5,1.5c-0.8,0-1.5-0.7-1.5-1.5v-5.6c-0.1-0.8-0.9-1.5-1.7-1.5
			c-1,0-1.8,0.8-1.8,1.8l0,7.2c0,0.8-0.7,1.5-1.5,1.5c-0.8,0-1.5-0.7-1.5-1.5v-8.4c-0.1-0.8-0.9-1.5-1.7-1.5l-0.1,0l-0.1,0
			c-0.9,0-1.6,0.6-1.7,1.5v8.4c0,0.8-0.7,1.5-1.5,1.5c-0.8,0-1.5-0.7-1.5-1.5l0-5.5v-1.8c0-1-0.8-1.8-1.8-1.8
			c-0.9,0-1.6,0.6-1.7,1.5v5.6c0,0.8-0.7,1.5-1.5,1.5c-0.8,0-1.5-0.7-1.5-1.5V39.2c-0.1-0.8-0.9-1.5-1.7-1.5c-1,0-1.8,0.8-1.8,1.8
			v4.3v0.4c0,0.8-0.7,1.5-1.5,1.5s-1.5-0.7-1.5-1.5v-0.4v-3.9c0-1-0.8-1.8-1.8-1.8c-1,0-1.8,0.8-1.8,1.8v13.9c0,1,0.8,1.8,1.8,1.8
			c1,0,1.8-0.8,1.8-1.8v-4.5v-0.4c0-0.8,0.7-1.5,1.5-1.5s1.5,0.7,1.5,1.5v0.4V59c0,1,0.8,1.8,1.8,1.8c0.9,0,1.6-0.6,1.7-1.5v-3.7
			c0-0.8,0.7-1.5,1.5-1.5c0.8,0,1.5,0.7,1.5,1.5v7.5c0.1,0.8,0.9,1.5,1.7,1.5c1,0,1.8-0.8,1.8-1.8v-5.2l0-0.1c0-0.8,0.7-1.5,1.5-1.5
			c0.8,0,1.5,0.7,1.5,1.5v14.3c0.1,0.8,0.9,1.5,1.7,1.5l0.1,0l0.1,0c0.9,0,1.6-0.6,1.7-1.5V57.6c0-0.8,0.7-1.5,1.5-1.5
			c0.8,0,1.5,0.7,1.5,1.5v0.1h0v5.2c0,1,0.8,1.8,1.8,1.8c0.9,0,1.6-0.6,1.7-1.5v-7.5c0-0.8,0.7-1.5,1.5-1.5c0.8,0,1.5,0.7,1.5,1.5
			v3.7c0.1,0.8,0.9,1.5,1.7,1.5c1,0,1.8-0.8,1.8-1.8v-9.8v-0.4c0-0.8,0.7-1.5,1.5-1.5c0.8,0,1.5,0.7,1.5,1.5v0.4v4.5
			c0,1,0.8,1.8,1.8,1.8c1,0,1.8-0.8,1.8-1.8V39.8c0-1-0.8-1.8-1.8-1.8c-1,0-1.8,0.8-1.8,1.8v3.9v0.4c0,0.8-0.7,1.5-1.5,1.5
			c-0.8,0-1.5-0.7-1.5-1.5v-0.4v-4.3c0-1-0.8-1.8-1.8-1.8C58,37.7,57.3,38.4,57.1,39.2"/>
	</defs>
	<use xlink:href="#SVGID_1_"  style="overflow:visible;fill:#FFFFFF;"/>
	<clipPath id="SVGID_2_">
		<use xlink:href="#SVGID_1_"  style="overflow:visible;"/>
	</clipPath>
</g>
<g>
	<defs>
		<path id="SVGID_3_" d="M17.9,49.8c0-15.5,12.5-28,28-28c15.5,0,28,12.5,28,28c0,15.5-12.5,28-28,28C30.4,77.8,17.9,65.3,17.9,49.8
			 M15.5,49.8c0,16.8,13.6,30.4,30.4,30.4c16.8,0,30.4-13.6,30.4-30.4S62.7,19.4,45.9,19.4C29.1,19.4,15.5,33,15.5,49.8"/>
	</defs>
	<use xlink:href="#SVGID_3_"  style="overflow:visible;fill:#FFFFFF;"/>
	<clipPath id="SVGID_4_">
		<use xlink:href="#SVGID_3_"  style="overflow:visible;"/>
	</clipPath>
</g>
<g>
	<path class="st0" d="M111.2,69.1V53.5h-19v15.6h-7.3V30.5h7.3v16.3h19V30.5h7.2v38.6H111.2z"/>
	<path class="st0" d="M127.8,41.8v14.2c0,4.1,2.3,7.3,6.6,7.3c4.1,0,6.9-3.5,6.9-7.6V41.8h6.7v27.2h-6l-0.4-3.7
		c-2.8,2.8-5.4,4.1-9.2,4.1c-6.5,0-11.2-4.9-11.2-13.3V41.8H127.8z"/>
	<path class="st0" d="M158.4,30.5v15c1.6-2.8,6.1-4.4,8.9-4.4c7.9,0,13.8,4.8,13.8,14.2c0,8.9-6,14.2-14,14.2
		c-3.3,0-6.7-1.1-8.8-4.4L158,69h-6.3V30.5H158.4z M158.9,55.4c0,4.9,3.6,8,7.9,8c4.3,0,7.7-3.3,7.7-8c0-4.9-3.4-7.9-7.7-7.9
		C162.5,47.5,158.9,50.7,158.9,55.4z"/>
	<path class="st0" d="M218.7,41.1l-12.6,16.7h-1.4L192.5,41v28h-7.3V30.5h8.4l12.1,16.6l12.1-16.6h8.3v38.6h-7.3V41.1z"/>
	<path class="st0" d="M237.1,34.2c0,5.2-7.9,5.2-7.9,0C229.1,28.9,237.1,28.9,237.1,34.2z M229.7,41.7V69h6.7V41.7H229.7z"/>
	<path class="st0" d="M257.6,41.8h8v0.2l-8.9,13.2l9.5,13.6V69h-8l-5.9-9.1l-5.9,9.1h-8v-0.2l9.5-13.6l-8.9-13.2v-0.2h8l5.3,9.2
		L257.6,41.8z"/>
</g>
</svg>
