<?xml version="1.0" encoding="utf-8"?>
<!-- Generator: Adobe Illustrator 22.1.0, SVG Export Plug-In . SVG Version: 6.00 Build 0)  -->
<svg version="1.1" id="Camada_1" xmlns="http://www.w3.org/2000/svg" xmlns:xlink="http://www.w3.org/1999/xlink" x="0px" y="0px"
	 viewBox="0 0 50 50" style="enable-background:new 0 0 50 50;" xml:space="preserve">
<style type="text/css">
	.st0{fill:#004370;}
	.st1{fill:none;stroke:#FFFFFF;}
	.st2{fill:#FFFFFF;}
	.st3{font-family:'Roboto-Bold';}
	.st4{font-size:8.0337px;}
</style>
<g id="Group_2583" transform="translate(697 -1683)">
	<g id="Ellipse_1176" transform="translate(707 2349)">
		<circle class="st0" cx="-1379" cy="-641" r="25"/>
		<circle class="st1" cx="-1379" cy="-641" r="24.5"/>
	</g>
	<g id="Group_2505" transform="translate(712 2374)">
		<text transform="matrix(1 0 0 1 -1398.6094 -653.5338)" class="st2 st3 st4">Garantia</text>
	</g>
	<path class="st2" d="M-674.2,1698.5v-1c0-0.6-0.5-1-1-1c-0.5,0-0.9,0.4-1,0.8v3.3c0,0.5-0.4,0.9-0.9,0.9c-0.5,0-0.9-0.4-0.9-0.9
		v-6.7c-0.1-0.5-0.5-0.8-1-0.8c-0.6,0-1,0.5-1,1v2.5v0.2c0,0.5-0.4,0.9-0.9,0.9c-0.5,0-0.9-0.4-0.9-0.9v-0.2v-2.3c0-0.6-0.5-1-1-1
		c-0.6,0-1,0.5-1,1v8.1c0,0.6,0.5,1,1,1c0.6,0,1-0.5,1-1v-2.6v-0.2c0-0.5,0.4-0.9,0.9-0.9c0.5,0,0.9,0.4,0.9,0.9v0.2v5.7
		c0,0.6,0.5,1,1,1c0.5,0,0.9-0.4,1-0.8v-2.1c0-0.5,0.4-0.9,0.9-0.9c0.5,0,0.9,0.4,0.9,0.9v4.3c0.1,0.5,0.5,0.8,1,0.8
		c0.6,0,1-0.5,1-1v-3l0,0c0-0.5,0.4-0.8,0.9-0.8c0.5,0,0.9,0.4,0.9,0.9v8.3c0.1,0.5,0.5,0.8,1,0.8c0,0,0,0,0,0l0,0c0,0,0,0,0,0
		c0.5,0,0.9-0.4,1-0.8v-8.3c0-0.5,0.4-0.9,0.9-0.9c0.5,0,0.9,0.4,0.9,0.9v0h0v3c0,0.6,0.5,1,1,1c0.5,0,0.9-0.4,1-0.8v-4.3
		c0-0.5,0.4-0.9,0.9-0.9c0.5,0,0.9,0.4,0.9,0.9v2.1c0.1,0.5,0.5,0.8,1,0.8c0.6,0,1-0.5,1-1v-5.7v-0.2c0-0.5,0.4-0.9,0.9-0.9
		s0.9,0.4,0.9,0.9v0.2v2.6c0,0.6,0.5,1,1,1c0.6,0,1-0.5,1-1v-8.1c0-0.6-0.5-1-1-1c-0.6,0-1,0.5-1,1v2.3v0.2c0,0.5-0.4,0.9-0.9,0.9
		s-0.9-0.4-0.9-0.9v-0.2v-2.5c0-0.6-0.5-1-1-1c-0.5,0-0.9,0.4-1,0.8v6.7c0,0.5-0.4,0.9-0.9,0.9c-0.5,0-0.9-0.4-0.9-0.9v-3.3
		c-0.1-0.5-0.5-0.8-1-0.8c-0.6,0-1,0.5-1,1l0,4.2c0,0.5-0.4,0.9-0.9,0.9c-0.5,0-0.9-0.4-0.9-0.9v-4.9c-0.1-0.5-0.5-0.8-1-0.8
		c0,0,0,0,0,0l0,0c0,0,0,0,0,0c-0.5,0-0.9,0.4-1,0.8v4.9c0,0.5-0.4,0.9-0.9,0.9c-0.5,0-0.9-0.4-0.9-0.9"/>
</g>
</svg>
