<?xml version="1.0" encoding="utf-8"?>
<!-- Generator: Adobe Illustrator 22.1.0, SVG Export Plug-In . SVG Version: 6.00 Build 0)  -->
<svg version="1.1" id="Camada_1" xmlns="http://www.w3.org/2000/svg" xmlns:xlink="http://www.w3.org/1999/xlink" x="0px" y="0px"
	 viewBox="0 0 98 98" style="enable-background:new 0 0 98 98;" xml:space="preserve">
<style type="text/css">
	.st0{fill:#004370;}
	.st1{fill:#FFFFFF;}
	.st2{fill:#FCFCFC;}
	.st3{fill:none;stroke:#FFFFFF;}
</style>
<g id="qualidade-garantida" transform="matrix(0.966, -0.259, 0.259, 0.966, 1387, 751.787)">
	<circle id="Ellipse_1177" class="st0" cx="-1110.2" cy="-1025.2" r="40"/>
	<g id="Group_2520" transform="translate(11.333 3.867)">
		<path id="Path_1031" class="st1" d="M-1142.8-1051.9c0.6,0.5,1.1,1.1,1.5,1.9c0.3,0.6,0.4,1.3,0.4,2l2.1-0.4v1.2l-2.5,0.5
			c-0.1,0.3-0.3,0.6-0.5,0.8c-0.5,0.5-1.1,0.9-1.7,1.2c-0.6,0.3-1.4,0.3-2,0c-0.8-0.2-1.6-0.6-2.1-1.2l-0.5-0.7
			c-0.6-0.5-1.2-1.2-1.6-1.9c-0.3-0.6-0.4-1.3-0.4-2c0.1-0.7,0.4-1.3,0.8-1.9c0.5-0.5,1.1-0.9,1.7-1.2c0.7-0.3,1.4-0.3,2.1,0
			c0.8,0.3,1.5,0.7,2.1,1.2L-1142.8-1051.9z M-1144.1-1051.3c-0.7-0.6-1.5-1-2.4-1.2c-0.7,0-1.4,0.3-1.9,0.9c-0.5,0.5-0.7,1.3-0.5,2
			c0.2,0.9,0.7,1.6,1.5,2.1l0.5,0.4c0.7,0.6,1.5,1,2.4,1.2c0.7,0,1.5-0.3,2-0.8c0.5-0.5,0.7-1.3,0.5-2c-0.2-0.8-0.8-1.6-1.5-2.1
			L-1144.1-1051.3z"/>
		<path id="Path_1032" class="st1" d="M-1135.3-1052.7c-0.2,0.7-0.6,1.4-1.2,1.9c-0.5,0.4-1.1,0.5-1.7,0.4c-0.7-0.2-1.3-0.7-1.6-1.3
			l-2.5-3.9l1.1-0.7l2.5,3.7c0.3,0.7,1,1.1,1.7,0.8c0.1,0,0.2-0.1,0.3-0.1c0.7-0.3,1.1-1.1,0.9-1.9l-2.8-4.3l1.1-0.7l3.9,5.9
			l-1.2,0.7L-1135.3-1052.7z"/>
		<path id="Path_1033" class="st1" d="M-1128.6-1054.7c-0.2-0.2-0.3-0.4-0.4-0.7c-0.4,0.7-0.9,1.2-1.6,1.5c-0.6,0.3-1.3,0.3-1.9,0
			c-0.5-0.2-0.9-0.7-1.1-1.2c-0.3-0.6-0.2-1.3,0.3-1.9c0.5-0.6,1.2-1.1,2-1.3l1.1-0.4l-0.1-0.5c-0.1-0.3-0.3-0.6-0.7-0.8
			c-0.4-0.1-0.8-0.1-1.2,0c-0.4,0.1-0.7,0.4-0.9,0.7c-0.2,0.2-0.3,0.6-0.1,0.9l-1.2,0.4c-0.1-0.3-0.1-0.7,0-1.1
			c0.1-0.4,0.4-0.8,0.7-1.1c0.4-0.3,0.8-0.5,1.2-0.7c0.6-0.3,1.4-0.3,2,0c0.6,0.3,1,0.7,1.2,1.3l1.2,2.9c0.3,0.7,0.4,1.1,0.8,1.3
			v0.1L-1128.6-1054.7z M-1130.9-1054.9c0.4-0.1,0.7-0.3,0.9-0.7c0.3-0.2,0.4-0.6,0.4-0.9l-0.5-1.3l-0.8,0.3c-1.3,0.5-2,1.1-1.7,2
			c0.1,0.3,0.4,0.6,0.7,0.7C-1131.6-1054.8-1131.2-1054.8-1130.9-1054.9L-1130.9-1054.9z"/>
		<path id="Path_1034" class="st1" d="M-1125-1055.3l-1.2,0.1l-1.5-9.9l1.2-0.1L-1125-1055.3z"/>
		<path id="Path_1035" class="st1" d="M-1123.7-1064.4c0-0.2,0-0.4,0.1-0.5c0.1-0.2,0.3-0.3,0.5-0.3c0.3,0,0.4,0,0.5,0.1
			c0.1,0.1,0.1,0.3,0.3,0.5c0,0.2,0,0.4-0.1,0.5c-0.1,0.2-0.3,0.3-0.5,0.3c-0.3,0-0.4,0-0.5-0.1
			C-1123.6-1064.1-1123.7-1064.3-1123.7-1064.4z M-1122.1-1055.6h-1.2l-0.3-7.1h1.2L-1122.1-1055.6z"/>
		<path id="Path_1036" class="st1" d="M-1120.2-1059.3c0.1-1,0.5-1.9,1.2-2.5c0.5-0.6,1.4-0.8,2.1-0.7c0.7,0.1,1.3,0.6,1.7,1.2
			l0.5-3.6l1.2,0.1l-1.5,9.9l-1.1-0.1v-0.8c-1.2,0.9-2.8,0.7-3.8-0.4c-0.1-0.1-0.2-0.2-0.2-0.4
			C-1120.4-1057.5-1120.5-1058.5-1120.2-1059.3z M-1119.2-1059.1c-0.1,0.6,0,1.3,0.3,1.9c0.2,0.5,0.7,0.8,1.2,0.9
			c0.7,0.1,1.5-0.2,1.9-0.8l0.5-3.2c-0.2-0.6-0.8-1.1-1.5-1.2c-0.5-0.1-1.1,0.1-1.5,0.5C-1118.7-1060.4-1119-1059.8-1119.2-1059.1
			L-1119.2-1059.1z"/>
		<path id="Path_1037" class="st1" d="M-1109.7-1052.8c0-0.3,0-0.5,0.1-0.8c-0.7,0.3-1.4,0.3-2.1,0c-0.6-0.2-1.1-0.6-1.3-1.2
			c-0.3-0.5-0.3-1.1,0-1.6c0.2-0.6,0.8-1.1,1.5-1.2c0.8-0.1,1.7,0,2.4,0.4l0.9,0.3l0.3-0.5c0.1-0.3,0.1-0.7,0-1.1
			c-0.2-0.4-0.5-0.6-0.9-0.8c-0.3-0.2-0.7-0.2-1.1-0.1c-0.3,0.1-0.5,0.3-0.7,0.5l-1.1-0.5c0.2-0.3,0.5-0.6,0.8-0.8
			c0.4-0.2,0.8-0.3,1.2-0.3c0.5,0,1,0.1,1.5,0.3c0.7,0.2,1.2,0.7,1.5,1.3c0.3,0.6,0.3,1.3,0,1.9l-1.3,2.9c-0.2,0.5-0.4,1-0.4,1.5
			v0.1L-1109.7-1052.8z M-1111.2-1054.5c0.3,0.1,0.7,0.2,1.1,0.1c0.4,0,0.7-0.1,0.9-0.4l0.5-1.3l-0.9-0.4c-1.3-0.5-2.3-0.5-2.5,0.3
			c-0.1,0.3-0.1,0.6,0,0.9C-1111.9-1055-1111.5-1054.7-1111.2-1054.5z"/>
		<path id="Path_1038" class="st1" d="M-1105.7-1054.8c0.6-0.8,1.4-1.3,2.3-1.6c0.7-0.2,1.5-0.1,2.1,0.4c0.6,0.4,1,1.1,1.1,1.9
			l2.3-2.9l0.9,0.8l-6.1,7.9l-0.8-0.7l0.4-0.7c-0.8,0.2-1.5,0-2.1-0.5c-0.6-0.5-1-1.2-0.9-2
			C-1106.7-1053.2-1106.3-1054.1-1105.7-1054.8z M-1104.8-1054c-0.5,0.5-0.7,1.1-0.8,1.7c0,0.5,0.2,1,0.7,1.3c0.6,0.4,1.3,0.5,2,0.3
			l2-2.5c0.1-0.7-0.1-1.4-0.7-1.9c-0.4-0.3-1-0.4-1.5-0.3C-1103.7-1055.1-1104.3-1054.6-1104.8-1054z"/>
		<path id="Path_1039" class="st1" d="M-1100.5-1045.1c-0.5-0.7-0.8-1.5-0.7-2.4c0.2-0.9,0.7-1.7,1.5-2.3l0.1-0.1
			c0.5-0.4,1.1-0.7,1.7-0.8c0.6-0.2,1.2-0.1,1.7,0.1c0.5,0.2,1,0.5,1.3,0.9c0.5,0.6,0.8,1.5,0.7,2.3c-0.2,0.9-0.8,1.7-1.6,2.1
			l-0.5,0.3l-2.9-3.7c-0.5,0.4-0.8,0.9-0.9,1.5c-0.1,0.6,0,1.2,0.4,1.6c0.2,0.3,0.5,0.6,0.9,0.7c0.3,0.1,0.7,0.2,1.1,0.1v0.9
			C-1098.8-1043.7-1099.9-1044.2-1100.5-1045.1z M-1095.7-1049.1c-0.3-0.4-0.7-0.6-1.2-0.7c-0.5-0.1-0.9,0.1-1.6,0.4l2.1,2.8h0.1
			c0.4-0.3,0.6-0.7,0.8-1.2C-1095.2-1048.2-1095.3-1048.7-1095.7-1049.1z"/>
	</g>
	<g id="Group_2521" transform="translate(9.067 49.565)">
		<path id="Path_1040" class="st2" d="M-1146-1054c-0.7-0.1-1.4-0.4-1.9-0.9c-0.7-0.5-1.2-1.2-1.6-2c-0.5-0.8-0.8-1.6-0.8-2.5
			c0-0.9,0.3-1.7,0.8-2.4c0.5-0.8,1.3-1.5,2.1-2l0.7-0.4c0.8-0.5,1.8-0.9,2.8-0.9c0.9-0.1,1.8,0.1,2.5,0.5c0.8,0.4,1.4,1.1,1.9,1.9
			c0.6,1,0.9,2.1,0.8,3.2c-0.2,1-0.8,2-1.7,2.5l-1.2-2c0.5-0.3,0.8-0.8,0.9-1.3c0.1-0.5,0-1.1-0.4-1.5c-0.3-0.7-1-1.1-1.7-1.1
			c-0.9,0.1-1.8,0.3-2.7,0.8l-0.7,0.4c-0.9,0.4-1.6,1.1-2,2c-0.3,0.7-0.2,1.5,0.3,2.1c0.3,0.6,0.8,1.1,1.5,1.3l1.7-0.9l-1.1-1.9
			l1.5-0.8l2.3,3.9L-1146-1054z"/>
		<path id="Path_1041" class="st2" d="M-1140.6-1047c0-0.3,0.1-0.4,0.3-0.7c-0.8,0.1-1.6-0.1-2.3-0.7c-0.6-0.4-1-1.1-1.1-1.9
			c0-0.7,0.2-1.3,0.5-1.9c0.5-0.6,1.3-1,2.1-0.9c1,0.1,2,0.6,2.7,1.3l0.8,0.7l0.3-0.4c0.2-0.3,0.4-0.6,0.4-0.9
			c0-0.4-0.2-0.7-0.5-0.9c-0.2-0.2-0.5-0.4-0.8-0.4c-0.3,0-0.5,0.1-0.7,0.4l-1.9-1.5c0.3-0.4,0.7-0.7,1.2-0.8
			c0.5-0.2,1.1-0.1,1.6,0.1c0.6,0.2,1.1,0.5,1.6,0.9c0.7,0.6,1.2,1.4,1.3,2.3c0.1,0.8-0.1,1.6-0.7,2.3l-2.3,2.7
			c-0.4,0.5-0.7,1-0.9,1.6l-0.1,0.1L-1140.6-1047z M-1141.2-1049.4c0.2,0.2,0.5,0.4,0.8,0.4c0.3,0.1,0.5,0,0.8,0l0.9-1.1l-0.7-0.5
			c-0.8-0.7-1.6-0.8-2.1-0.3l-0.1,0.1c-0.1,0.3-0.3,0.4-0.3,0.7S-1141.3-1049.6-1141.2-1049.4L-1141.2-1049.4z"/>
		<path id="Path_1042" class="st2" d="M-1129.2-1047.7c-0.2-0.1-0.5-0.2-0.7-0.4c-0.6-0.4-1.3-0.4-1.9,0l-2.4,4.9l-2-0.9l3.6-7.6
			l1.9,0.9l-0.4,0.9c0.7-0.5,1.5-0.6,2.3-0.3c0.2,0.1,0.4,0.2,0.5,0.4L-1129.2-1047.7z"/>
		<path id="Path_1043" class="st2" d="M-1124.6-1040.1c0-0.3-0.1-0.5-0.1-0.8c-0.6,0.5-1.5,0.7-2.3,0.5c-0.7-0.1-1.4-0.5-1.9-1.1
			c-0.8-1.3-0.5-2.9,0.8-3.8c0,0,0.1-0.1,0.2-0.1c0.9-0.4,2-0.4,2.9-0.1l1.1,0.3l0.1-0.5c0.1-0.3,0-0.7-0.1-0.9
			c-0.2-0.3-0.5-0.5-0.8-0.5c-0.3-0.1-0.7,0-0.9,0.1c-0.2,0.1-0.4,0.4-0.4,0.7l-2.3-0.4c0.1-0.5,0.3-0.9,0.7-1.2
			c0.4-0.4,0.9-0.6,1.5-0.7c0.6-0.1,1.3-0.1,1.9,0c0.9,0.2,1.6,0.6,2.3,1.2c0.5,0.7,0.7,1.6,0.5,2.4l-0.7,3.6
			c-0.1,0.6-0.1,1.3,0,1.9v0.1L-1124.6-1040.1z M-1126.1-1042h0.9c0.3-0.1,0.5-0.2,0.7-0.4l0.3-1.5l-0.8-0.3c-1.1-0.3-1.7,0-2,0.8
			v0.1c0,0.3,0,0.5,0.1,0.8C-1126.7-1042.2-1126.4-1042-1126.1-1042L-1126.1-1042z"/>
		<path id="Path_1044" class="st2" d="M-1117.7-1048.1l0.1,0.9c0.5-0.8,1.3-1.3,2.3-1.5c0.8-0.1,1.5,0.1,2.1,0.5
			c0.6,0.6,0.9,1.4,0.9,2.3l0.7,5.5l-2.3,0.3l-0.7-5.3c0-0.4-0.1-0.8-0.4-1.1c-0.3-0.2-0.7-0.3-1.1-0.3c-0.6,0.1-1.1,0.4-1.3,0.9
			l0.7,5.9l-2.3,0.3l-0.9-8.4H-1117.7z"/>
		<path id="Path_1045" class="st2" d="M-1109.6-1052.2l0.8,2l1.3-0.5l0.7,1.6l-1.3,0.5l1.6,3.9c0.1,0.3,0.3,0.5,0.4,0.5h0.7
			c0.3-0.1,0.4-0.1,0.5-0.3l0.7,1.6c-0.4,0.3-0.8,0.5-1.2,0.7c-1.5,0.5-2.5,0.1-3.1-1.3l-1.7-4.3l-1.2,0.4l-0.7-1.6l1.2-0.4l-0.8-2
			L-1109.6-1052.2z"/>
		<path id="Path_1046" class="st2" d="M-1107.8-1053.2c-0.2-0.3-0.2-0.6-0.1-0.9c0.1-0.3,0.3-0.6,0.7-0.8c0.3-0.2,0.6-0.3,0.9-0.3
			c0.3,0.1,0.5,0.3,0.7,0.5c0.2,0.3,0.2,0.6,0.1,0.9c-0.1,0.3-0.4,0.6-0.7,0.8c-0.3,0.2-0.6,0.3-0.9,0.1
			C-1107.4-1052.8-1107.6-1052.9-1107.8-1053.2z M-1100.2-1045.3l-2,1.2l-4.4-7.2l2-1.2L-1100.2-1045.3z"/>
		<path id="Path_1047" class="st2" d="M-1100.5-1050.1c-0.8-0.7-1.4-1.7-1.6-2.8c-0.2-1,0.2-1.9,0.9-2.5c0.6-0.5,1.3-0.8,2.1-0.8
			l-3.1-3.1l1.6-1.6l8.4,8.5l-1.5,1.5l-0.7-0.5c0.1,0.8-0.2,1.7-0.8,2.3c-0.7,0.7-1.6,1-2.5,0.8
			C-1098.7-1048.6-1099.7-1049.2-1100.5-1050.1z M-1098.8-1051.6c0.4,0.5,1,0.9,1.6,1.1c0.5,0.1,1,0,1.3-0.4
			c0.5-0.4,0.7-1.1,0.4-1.7l-2.4-2.4c-0.6-0.3-1.2-0.1-1.6,0.4C-1100.4-1053.8-1100.1-1052.8-1098.8-1051.6L-1098.8-1051.6z"/>
		<path id="Path_1048" class="st2" d="M-1087.6-1060c-0.3,0-0.5,0-0.8-0.1c0.3,0.7,0.2,1.6-0.1,2.3c-0.3,0.7-0.9,1.2-1.6,1.5
			c-0.6,0.3-1.4,0.2-2-0.1c-0.7-0.4-1.2-1.1-1.3-1.9c-0.1-1,0.2-2,0.7-2.9l0.5-0.9l-0.4-0.3c-0.4-0.1-0.7-0.3-0.9-0.1
			c-0.3,0.1-0.6,0.4-0.8,0.7c-0.1,0.4-0.3,0.7-0.1,0.9c0.1,0.3,0.3,0.6,0.5,0.7l-1.1,2c-0.4-0.2-0.8-0.6-1.1-1.1
			c-0.2-0.5-0.3-1.1-0.3-1.6c0.1-0.7,0.2-1.3,0.5-1.9c0.4-0.8,1-1.5,1.9-1.9c0.8-0.3,1.7-0.2,2.4,0.1l3.2,1.7
			c0.5,0.3,1.1,0.5,1.7,0.5h0.1L-1087.6-1060z M-1089.8-1059c0.1-0.3,0.2-0.6,0.3-0.9c0-0.3-0.1-0.6-0.3-0.8l-1.3-0.7l-0.4,0.8
			c-0.5,1.1-0.4,1.7,0.3,2.1l0.1,0.1c0.2,0.1,0.6,0.1,0.8,0C-1090.1-1058.5-1089.9-1058.8-1089.8-1059L-1089.8-1059z"/>
	</g>
	<circle id="Ellipse_1178" class="st3" cx="-1110.2" cy="-1025.2" r="39.3"/>
	<path class="st1" d="M-1112.7-1030.1l0.4-1.7c0.2-0.9-0.3-1.8-1.2-2.1c-0.8-0.2-1.6,0.2-2,0.9l-1.4,5.2c-0.2,0.8-1,1.2-1.7,1
		c-0.8-0.2-1.2-1-1-1.7l2.9-10.8c0.1-0.8-0.4-1.6-1.2-1.8c-0.9-0.2-1.8,0.3-2.1,1.2l-1.1,3.9l-0.1,0.4c-0.2,0.8-1,1.2-1.7,1
		c-0.8-0.2-1.2-1-1-1.7l0.1-0.4l1-3.6c0.2-0.9-0.3-1.8-1.2-2.1c-0.9-0.2-1.8,0.3-2.1,1.2l-3.4,12.9c-0.2,0.9,0.3,1.8,1.2,2.1
		c0.9,0.2,1.8-0.3,2.1-1.2l1.1-4.2l0.1-0.4c0.2-0.8,1-1.2,1.7-1c0.8,0.2,1.2,1,1,1.7l-0.1,0.4l-2.4,9.1c-0.2,0.9,0.3,1.8,1.2,2.1
		c0.8,0.2,1.6-0.2,2-0.9l0.9-3.4c0.2-0.8,1-1.2,1.7-1c0.8,0.2,1.2,1,1,1.7l-1.9,6.9c-0.1,0.8,0.4,1.6,1.2,1.8
		c0.9,0.2,1.8-0.3,2.1-1.2l1.3-4.8l0-0.1c0.2-0.8,1-1.2,1.8-1c0.8,0.2,1.2,1,1,1.7l-3.5,13.2c-0.1,0.8,0.4,1.6,1.2,1.8
		c0,0,0,0,0.1,0l0,0c0,0,0,0,0.1,0c0.8,0.2,1.6-0.2,2-0.9l3.5-13.2c0.2-0.8,1-1.2,1.7-1c0.8,0.2,1.2,1,1,1.7l0,0.1l0,0l-1.3,4.8
		c-0.2,0.9,0.3,1.8,1.2,2.1c0.8,0.2,1.6-0.2,2-0.9l1.9-6.9c0.2-0.8,1-1.2,1.7-1c0.8,0.2,1.2,1,1,1.7l-0.9,3.4
		c-0.1,0.8,0.4,1.6,1.2,1.8c0.9,0.2,1.8-0.3,2.1-1.2l2.4-9.1l0.1-0.4c0.2-0.8,1-1.2,1.7-1c0.8,0.2,1.2,1,1,1.7l-0.1,0.4l-1.1,4.2
		c-0.2,0.9,0.3,1.8,1.2,2.1c0.9,0.2,1.8-0.3,2.1-1.2l3.4-12.9c0.2-0.9-0.3-1.8-1.2-2.1c-0.9-0.2-1.8,0.3-2.1,1.2l-1,3.6l-0.1,0.4
		c-0.2,0.8-1,1.2-1.7,1c-0.8-0.2-1.2-1-1-1.7l0.1-0.4l1.1-3.9c0.2-0.9-0.3-1.8-1.2-2.1c-0.8-0.2-1.6,0.2-2,0.9l-2.9,10.8
		c-0.2,0.8-1,1.2-1.7,1c-0.8-0.2-1.2-1-1-1.7l1.4-5.2c0.1-0.8-0.4-1.6-1.2-1.8c-0.9-0.2-1.8,0.3-2.1,1.2l-1.8,6.7
		c-0.2,0.8-1,1.2-1.7,1c-0.8-0.2-1.2-1-1-1.7l2.1-7.8c0.1-0.8-0.4-1.6-1.2-1.8c0,0,0,0-0.1,0l0,0c0,0,0,0-0.1,0
		c-0.8-0.2-1.6,0.2-2,0.9l-2.1,7.8c-0.2,0.8-1,1.2-1.7,1c-0.8-0.2-1.2-1-1-1.7"/>
</g>
</svg>
